<svg xmlns="http://www.w3.org/2000/svg" width="23.75" height="20.781" viewBox="0 0 23.75 20.781">
  <path id="Icon_awesome-bars" data-name="Icon awesome-bars" d="M.848,8.036H22.9a.848.848,0,0,0,.848-.848V5.067a.848.848,0,0,0-.848-.848H.848A.848.848,0,0,0,0,5.067V7.188A.848.848,0,0,0,.848,8.036Zm0,8.482H22.9a.848.848,0,0,0,.848-.848V13.549A.848.848,0,0,0,22.9,12.7H.848A.848.848,0,0,0,0,13.549V15.67A.848.848,0,0,0,.848,16.518ZM.848,25H22.9a.848.848,0,0,0,.848-.848V22.031a.848.848,0,0,0-.848-.848H.848A.848.848,0,0,0,0,22.031v2.121A.848.848,0,0,0,.848,25Z" transform="translate(0 -4.219)" fill="#159cff"/>
</svg>
